<?xml version="1.0" encoding="utf-8"?>
<!-- Generator: Adobe Illustrator 23.0.2, SVG Export Plug-In . SVG Version: 6.00 Build 0)  -->
<svg version="1.1" id="Layer_1" xmlns="http://www.w3.org/2000/svg" xmlns:xlink="http://www.w3.org/1999/xlink" x="0px" y="0px"
	 viewBox="0 0 595.3 841.9" style="enable-background:new 0 0 595.3 841.9;" xml:space="preserve">
<style type="text/css">
	.st0{fill-rule:evenodd;clip-rule:evenodd;fill:#F3CB00;}
	.st1{fill-rule:evenodd;clip-rule:evenodd;fill:#FFFFFF;}
	.st2{fill:#E2001A;}
	.st3{fill-rule:evenodd;clip-rule:evenodd;fill:#FAD500;}
	.st4{fill:#F3CB00;}
	.st5{fill-rule:evenodd;clip-rule:evenodd;fill:#3CB5E2;}
	.st6{fill:#FAD500;}
	.st7{fill:#E2EAEB;}
	.st8{fill-rule:evenodd;clip-rule:evenodd;fill:#59843F;}
	.st9{fill:#FFFFFF;}
	.st10{fill-rule:evenodd;clip-rule:evenodd;fill:#E2001A;}
</style>
<g>
	<path class="st0" d="M296.5,149.9c149.9,0,271.5,121.6,271.5,271.5c0,149.9-121.6,271.5-271.5,271.5C146.6,692.9,25,571.4,25,421.4
		C25,271.5,146.6,149.9,296.5,149.9L296.5,149.9z"/>
	<path class="st1" d="M296.5,156.5c146.3,0,264.9,118.6,264.9,264.9c0,146.3-118.6,264.9-264.9,264.9
		c-146.3,0-264.9-118.6-264.9-264.9C31.6,275.1,150.2,156.5,296.5,156.5L296.5,156.5z"/>
	<path class="st2" d="M81.3,429.1l-37.1-1.3l0.4-12c0.2-4.6,0.5-7.5,0.9-8.9c0.6-2.1,1.9-3.9,3.8-5.2c1.9-1.4,4.3-2,7.3-1.9
		c2.3,0.1,4.2,0.6,5.7,1.4c1.5,0.9,2.7,2,3.6,3.3c0.8,1.3,1.4,2.6,1.6,3.9c0.3,1.8,0.4,4.4,0.3,7.8l-0.2,4.9l14,0.5L81.3,429.1
		L81.3,429.1z M50.8,420.6l10.5,0.4l0.1-4.1c0.1-3,0-4.9-0.4-5.9c-0.4-1-0.9-1.8-1.7-2.4c-0.8-0.6-1.8-0.9-2.9-0.9
		c-1.3,0-2.5,0.3-3.4,1.1c-0.9,0.8-1.5,1.7-1.7,2.9c-0.2,0.9-0.3,2.7-0.4,5.4L50.8,420.6L50.8,420.6z M83.3,395l-36.5-6.4l4.8-27.1
		l6.2,1.1l-3.5,19.7l8.1,1.4l3.2-18.3l6.2,1.1l-3.2,18.3l9.9,1.8l3.6-20.4l6.2,1.1L83.3,395L83.3,395z M85.8,333.3l4.9-5.9
		c3.3,2.6,5.4,5.4,6.3,8.5c0.9,3.1,0.5,6.6-1,10.2c-1.8,4.6-4.9,7.7-9.2,9.4c-4.3,1.7-9.2,1.4-14.6-0.8c-5.7-2.3-9.6-5.6-11.6-9.8
		c-2-4.2-2-8.8,0-13.6c1.7-4.2,4.3-7.1,7.9-8.7c2.1-1,4.7-1.3,7.8-1l-1.1,7.5c-1.9-0.3-3.7,0-5.3,0.8c-1.6,0.9-2.7,2.2-3.4,4.1
		c-1,2.5-1,5,0.2,7.3c1.2,2.3,3.8,4.3,7.9,6c4.4,1.8,7.8,2.2,10.2,1.4c2.5-0.8,4.2-2.5,5.2-5c0.7-1.9,0.8-3.7,0.2-5.5
		C89.6,336.6,88.1,334.9,85.8,333.3L85.8,333.3z M71.4,306.8l15.2-25.3l31.8,19.1l-3.9,6.4l-26.5-15.9l-7.5,12.5l26.5,15.9l-3.9,6.4
		L71.4,306.8L71.4,306.8z M92.2,271.7l5.6-6.2L118,272l-9.4-18.4l5.2-5.8l12.6,28.2c1.4,3.1,2.1,5.6,2.4,7.8c0.2,2.1-0.4,4-1.9,5.7
		c-1.5,1.6-2.7,2.8-3.8,3.6l-4.1-3.7c0.8-0.7,1.4-1.4,2-2.1c1.2-1.3,1.8-2.4,1.8-3.4c0-1-0.5-2.4-1.6-4.3L92.2,271.7L92.2,271.7z
		 M119.8,241.6l20.9-18.2l4.1,4.7l-15.3,13.3l5.6,6.5l7.6-6.6c2.1-1.8,4-3.1,5.9-3.8c1.8-0.7,3.8-0.8,6-0.2c2.2,0.5,4.1,1.7,5.7,3.6
		c1.6,1.9,2.6,3.9,2.8,6.2c0.2,2.2-0.1,4.1-0.9,5.7c-0.8,1.6-2.4,3.4-4.7,5.4l-13.2,11.5L119.8,241.6L119.8,241.6z M145.7,260
		l5.5-4.8c1.8-1.5,2.9-2.7,3.5-3.5c0.6-0.8,0.8-1.7,0.8-2.8c0-1.1-0.4-2.1-1.2-2.9c-1.1-1.3-2.4-1.8-3.9-1.6
		c-1.4,0.2-3.3,1.3-5.5,3.2l-5.8,5L145.7,260L145.7,260z M154.1,213.5l22-13.8l19.7,31.5l-6.4,4L173.2,209l-9.5,5.9l8.4,13.4
		c2.4,3.8,4,6.6,4.6,8.3c0.7,1.7,0.8,3.3,0.3,4.7c-0.5,1.5-1.8,2.9-3.9,4.2c-0.7,0.5-2.1,1.2-4.2,2.3L166,243l1.4-0.9
		c1.3-0.8,2.1-1.6,2.3-2.2c0.2-0.6-0.1-1.7-1-3.1l-3.4-5.4L154.1,213.5L154.1,213.5z M189.3,192.6l6.6-2.5l8.9,23.1l5.2-28.5l7-2.7
		l13.3,34.6l-6.5,2.5l-8.7-22.6l-5.3,28l-7,2.7L189.3,192.6L189.3,192.6z M229.2,178.1l7.3-1.7l3.6,15.4c1.6-0.5,2.6-1.2,3-2
		c0.4-0.8,0.9-2.9,1.4-6.2c0.6-4.3,1.6-7,2.9-8.4c1.3-1.3,3.6-2.3,7-3.1c0.2,0,0.5-0.1,1.1-0.3l1.2,5.4l-1,0.2
		c-1.5,0.3-2.5,0.8-3.1,1.3c-0.6,0.5-1,1.2-1.3,2.1c-0.3,0.9-0.5,2.6-0.8,5.1c-0.2,1.3-0.4,2.5-0.7,3.5c-0.3,1-1.1,2-2.2,3
		c1.7,0.1,3.3,0.7,4.7,1.9c1.4,1.2,3,2.9,4.9,5.1l7.2,8.8l-8.6,2l-6.5-8.3c-0.1-0.1-0.3-0.3-0.6-0.7c-0.1-0.1-0.5-0.6-1.3-1.5
		c-1.3-1.6-2.4-2.5-3.1-2.8c-0.7-0.3-1.7-0.3-2.9-0.1l3.7,15.8l-7.3,1.7L229.2,178.1L229.2,178.1z M302,205.8l-8.1,0.6l-3.8-8.2
		l-14.8,1l-2.5,8.6l-7.9,0.6l11.8-38l7.9-0.6L302,205.8L302,205.8z M287.2,192.1l-6.1-13.4l-4,14.1L287.2,192.1L287.2,192.1z
		 M326.3,170.8l6.9,1.1l-3.9,24.4l18.7-22l7.4,1.2l-5.8,36.7l-6.9-1.1l3.8-23.9l-18.6,21.6l-7.4-1.2L326.3,170.8L326.3,170.8z
		 M357,214.4l13.3-34.6l7,2.7l-5.2,13.6l13.7,5.3l5.2-13.6l7,2.7l-13.3,34.6l-7-2.7l5.8-15.1l-13.7-5.3l-5.8,15.1L357,214.4
		L357,214.4z M409.9,196.1l22,12.2l-3,5.4l-15.4-8.6l-15,27l-6.6-3.6L409.9,196.1L409.9,196.1z M437.4,211.3l6.6,5.2l-5,20.5
		l17.7-10.6l6.2,4.8l-27.2,14.5c-3,1.6-5.5,2.5-7.6,2.9c-2.1,0.4-4-0.1-5.8-1.5c-1.7-1.4-3-2.5-3.8-3.5l3.4-4.4
		c0.8,0.7,1.5,1.3,2.2,1.9c1.4,1.1,2.6,1.6,3.5,1.6c1,0,2.4-0.7,4.2-1.9L437.4,211.3L437.4,211.3z M470.8,238.3l5,5.6l-22.9,20.7
		l7.2,8l22.9-20.7l5,5.5L465,278.1l7.4,8.2l22.9-20.7l5,5.5l-27.6,24.9l-29.6-32.9L470.8,238.3L470.8,238.3z M475.9,302.9l31.8-19.1
		l14.2,23.6l-5.4,3.2l-10.3-17.2l-7.1,4.2l9.6,16l-5.4,3.2l-9.6-16l-8.7,5.2l10.7,17.8l-5.4,3.2L475.9,302.9L475.9,302.9z M496,341
		l28.6-11.5l-4.1-10.2l5.8-2.4l11,27.3l-5.8,2.4l-4.1-10.2l-28.6,11.5L496,341L496,341z M539.3,354.1l1.7,6.8l-24,6l27.6,8.6
		l1.8,7.2l-36,9l-1.7-6.8l23.5-5.9l-27.1-8.7l-1.8-7.3L539.3,354.1L539.3,354.1z M511.5,421.5L527,421l-0.1-1.5
		c-0.1-2.4-0.5-4-1.2-5c-0.7-0.9-2.9-2.5-6.5-4.7l-8.3-5.1l-0.3-9l7.4,4.3c2.9,1.7,5,3,6.2,4.1c1.2,1,2.3,2.3,3.2,3.9
		c0.4-3.5,1.5-6,3.3-7.6c1.8-1.6,4-2.4,6.6-2.5c2.3-0.1,4.3,0.4,6.1,1.5c1.8,1.1,3,2.5,3.7,4.4c0.7,1.8,1.1,4.6,1.2,8.3l0.6,15.8
		l-37.1,1.3L511.5,421.5L511.5,421.5z M542.4,420.5l-0.2-5.8c-0.1-3-0.2-4.9-0.4-5.8c-0.2-0.9-0.6-1.7-1.4-2.4
		c-0.8-0.6-1.8-0.9-3.1-0.9c-1.3,0-2.3,0.4-3.1,1.1c-0.7,0.7-1.2,1.5-1.3,2.5c-0.2,1-0.2,3.1-0.1,6.1l0.2,5.5L542.4,420.5
		L542.4,420.5z"/>
	<path class="st2" d="M123.1,555.2l15.8,19.5l-4.8,3.9L123,565l-24,19.4l-4.7-5.8L123.1,555.2L123.1,555.2z M117.5,604.3l26.2-26.2
		l5.3,5.3l-26.2,26.2L117.5,604.3L117.5,604.3z M159.8,638.2l-6.6-4.8l2.3-8.7l-12-8.7l-7.4,5l-6.4-4.7l33.5-21.5l6.4,4.7
		L159.8,638.2L159.8,638.2z M157.2,618.2l4-14.1l-12.2,8.2L157.2,618.2L157.2,618.2z M188.4,612l23,12.2L194,657l-6.6-3.5l14.5-27.2
		L192,621l-7.4,14c-2.1,4-3.8,6.7-4.9,8.2c-1.1,1.4-2.4,2.3-3.9,2.7c-1.5,0.3-3.4-0.1-5.6-1.3c-0.8-0.4-2.1-1.2-4.1-2.5l2.7-5.1
		l1.5,0.8c1.4,0.7,2.4,1.1,3.1,0.9c0.7-0.1,1.4-0.9,2.2-2.4l3-5.6L188.4,612L188.4,612z M219.5,626.7l23.8,8.2l-2,5.9l-16.7-5.7
		l-10.1,29.2l-7.1-2.4L219.5,626.7L219.5,626.7z M240.7,671.6l8.3-36.2l7.3,1.7l-8.3,36.2L240.7,671.6L240.7,671.6z M294,678.8
		l-8.1-0.9l-2.3-8.7l-14.8-1.6l-3.9,8.1l-7.9-0.8l18.3-35.4l7.9,0.8L294,678.8L294,678.8z M281.8,662.8l-3.6-14.2l-6.4,13.2
		L281.8,662.8L281.8,662.8z M300.3,641.2l7-0.7l2.6,24.6l12.4-26.1l7.4-0.8l3.9,36.9l-7,0.7l-2.5-24.1l-12.4,25.7l-7.5,0.8
		L300.3,641.2L300.3,641.2z M318.5,630l3.4-0.4c0,2.3-0.6,4.2-1.8,5.6c-1.3,1.5-3,2.3-5.3,2.5c-2.2,0.2-4.1-0.2-5.7-1.4
		c-1.5-1.2-2.5-2.9-3-5.1l3.5-0.4c0.2,1.2,0.8,2,1.5,2.6c0.8,0.5,1.9,0.7,3.2,0.6c1.4-0.1,2.4-0.6,3-1.3
		C318.2,632.2,318.5,631.2,318.5,630L318.5,630z M370.9,667.4l-13.3-34.6l10.5-4l15.4,21.2l-2.9-26l10.5-4l13.3,34.6l-6.5,2.5
		l-10.5-27.3l3.6,29.9l-6.7,2.6l-17.3-24.6l10.5,27.3L370.9,667.4L370.9,667.4z M405.1,633.8c-2-3.2-3.2-6.2-3.6-9
		c-0.3-2-0.2-4.1,0.2-6.1c0.4-2,1.2-3.8,2.3-5.4c1.4-2.1,3.4-3.9,6-5.5c4.6-2.9,9.2-3.8,13.8-2.6c4.6,1.1,8.5,4.3,11.7,9.4
		c3.2,5.1,4.3,9.9,3.3,14.5c-1,4.6-3.8,8.3-8.4,11.2c-4.7,2.9-9.3,3.8-13.8,2.7C412.1,641.9,408.3,638.8,405.1,633.8L405.1,633.8z
		 M411.6,629.5c2.2,3.6,4.7,5.7,7.5,6.6c2.8,0.8,5.5,0.4,8-1.2c2.5-1.6,4-3.8,4.5-6.6c0.5-2.8-0.4-6.1-2.7-9.7
		c-2.3-3.6-4.7-5.8-7.4-6.6c-2.7-0.8-5.3-0.4-8,1.3c-2.6,1.6-4.2,3.9-4.7,6.7C408.4,622.7,409.3,625.9,411.6,629.5L411.6,629.5z
		 M450.5,626.7l-3.1-22.9l-20.3-5.9l6.6-5.7l13.4,4.1l-2.3-13.8l6.6-5.7l3.1,21.2l22.1,6.1l-6.8,5.9l-14.6-4.3l2.2,15.1L450.5,626.7
		L450.5,626.7z M455.1,572.5l4.9-5.7l11.9,10.4c1-1.4,1.4-2.5,1.3-3.4c-0.1-0.9-1-2.9-2.6-5.8c-2-3.8-2.9-6.6-2.6-8.4
		c0.3-1.8,1.6-4,3.8-6.6c0.1-0.1,0.3-0.4,0.7-0.8l4.2,3.6l-0.7,0.8c-1,1.2-1.6,2.1-1.8,2.9c-0.2,0.8-0.1,1.6,0.2,2.4
		c0.3,0.8,1.1,2.4,2.3,4.6c0.7,1.2,1.2,2.3,1.5,3.2c0.3,1,0.3,2.2,0,3.7c1.5-0.9,3.1-1.4,4.9-1.2c1.8,0.1,4.1,0.6,6.9,1.3l11,2.9
		l-5.8,6.6l-10.1-2.9c-0.1,0-0.4-0.1-0.9-0.2c-0.2,0-0.8-0.2-1.9-0.4c-2-0.5-3.4-0.6-4.1-0.5c-0.7,0.2-1.5,0.7-2.4,1.7l12.3,10.7
		l-4.9,5.7L455.1,572.5L455.1,572.5z"/>
	<path d="M299.9,557.4c8.4,0.7,16,4.4,21.6,10c6.3,6.3,10.2,15,10.2,24.6h0v0v0h0c0,9.6-3.9,18.3-10.2,24.6
		c-6.3,6.3-15,10.2-24.6,10.2v0h0h0v0c-9.6,0-18.3-3.9-24.6-10.2c-6.3-6.3-10.2-15-10.2-24.6h0v0v0h0c0-9.6,3.9-18.3,10.2-24.6
		c5.4-5.4,12.7-9.1,20.8-10v-6c-5.1,5-9.2,6.8-12.2,5.5c-0.6-0.3-0.4-2.8-0.4-2.7c-5.9,5.3-4.4-1-3.2-4.7c-3.2,1.7-6.5,3.1-10,4.1
		c-0.9-3.7,2.5-5.8,4-8.6c-2,0.1-4,0.8-6,1.4c0.7-1.7,1.4-3.2,2.7-4.5c-1.9,0.4-3.8,0.9-5.6,1.2c0.4-1.9,0.8-4.2,1.7-6
		c-4.6,0.3-10.2,1.8-12.6,6.1c0.4,0.8,0.7,1.7,0.9,2.6c8-1.4,9.7,7.8,2.9,11.1c-3.1,2.3-6.8,2.8-10.1,0.4c-1.6-1.1-3.7-2.4-5.3-4.1
		c-3.3-2.3-2.2-4.5-0.3-6.8c-2.7-0.3-0.6-0.4-3,0.5c1.1,2.4-0.5,4.8,1,7.5c-5.1-1.1-8.3-4.3-8.9-9.7c-0.4-4.5,5-2.3,1.6-7
		c-2.4-3.3-6.7-4.6-10.4-5.6c6.1-6.6,17.6-4.7,25.7-4c2.9,0.2,6,0.5,9.3,0.9c4.1,0,3.3,4.4,7.7,2c0,0,8.6-7.2,8.7-7.3
		c0.3-1.6,0.5-3.7-0.5-5.1c-2.3,0.7-1.7-0.1-1.8-1.9c-0.3-4.6-1-2.2-4.6-3.6c-0.4-1.5-3.7-4.6-3.7-3.2c-0.3,1.1-0.6,2.2-1,3.2
		c-1.2-2.3-2.8-4-4.9-5.7c-0.1,1.3-0.8,2.2-1.8,3c-1.3-2.4-2.4-2.1-4.6-2.1c-7.9,0-12.7-7.1-19.8,1.3c-2.6-8.7,0.9-15.2,10.7-14.8
		c2-3.6,6-5.2,9.9-5.2c0-0.1,5.8-0.1,13.4,0c-0.2-0.4-0.5-0.8-0.7-1.2c-0.3-0.5-0.7-1-1.1-1.4l0,0c-2.1-2.2-5.1-3.2-8.9-3.1l0,0h-57
		v0l-2.3,0.1c-17.9,0.4-23.1,0.5-29.7-6.7c-3.5,0.1-6.8,0-10-0.2c-3.2-0.2-6.2-0.5-9-1c-14.3-2.5-23.5-8.9-27.6-19.1
		c-1.1-0.4-2.1-0.7-3-1.1c-1-0.4-1.9-0.9-2.7-1.3c-4.3-2.4-6.6-5.6-7-9.5c-1-0.6-1.8-1.3-2.6-1.9c-2.2-1.8-3.7-3.5-4.3-5.1
		c-0.7-1.7-0.6-3.3,0.4-4.7l0.1-0.1c-4.1-5.2-4.5-8.7-1.2-10.5c-3.6-4.5-4.2-7.9-1.7-10.1c-0.2-0.2-0.3-0.5-0.5-0.8
		c-0.2-0.4-0.4-0.8-0.6-1.1c-1.9-3.8-1.3-7.8-0.8-11.9c0.4-4.2,1.1-8.7,2-13.6c1.3-7,3.1-14.6,5.5-22.9l0.6-2.1l0.4,2.2l0,0
		c0.4,2.1,0.8,4.2,1.2,6.2c0.5,2,1,3.9,1.5,5.8c2.8,9.5,6.7,17.4,11.8,23.7c0.4-0.4,0.8-0.7,1.4-0.9c1.1-0.5,2.6-0.8,4.4-0.9
		c0.1,0,0.2-0.1,0.4-0.1c0.1,0,0.2-0.1,0.4-0.1l0,0c0.5-0.2,0.9-0.5,1-0.7l0,0c0.6-0.9,2.3-1.3,5.2-1.3c0.1,0,0.3-0.1,0.4-0.2
		c0.2-0.1,0.3-0.2,0.5-0.3c0.9-0.7,1.7-1.9,2.6-3.7l0,0l0,0l0,0c0.1-0.2,0.2-0.4,0.3-0.5c0.1-0.2,0.2-0.3,0.3-0.4
		c0.6-0.7,1.4-1,2.4-0.9c0.1,0,0.2-0.1,0.3-0.1c0.1-0.1,0.3-0.2,0.4-0.3c0.7-0.6,1.3-1.5,1.9-3c0.1-0.3,0.2-0.6,0.3-0.9
		c0.1-0.3,0.3-0.5,0.5-0.8l0,0c0.9-1.2,2.4-2,4.6-2.2h0l88.9-8.5c1.9-0.3,3.5-0.2,4.8,0.2c1.3,0.4,2.2,1.1,2.9,2.2
		c0.1,0.1,0.2,0.2,0.3,0.3l0,0c0.1,0.1,0.2,0.3,0.4,0.4c0.6,0.7,1.3,1.5,2,2.5l0,0l0,0l0,0l0,0c0.1,0.1,0.1,0.3,0.2,0.4
		c0.1,0.1,0.1,0.3,0.1,0.5h0c0.2,0.8,0.3,2,0.2,3.5v0l0,0.1c0,0.4-0.1,0.7-0.1,1c0,0.3,0,0.6-0.1,0.9c-0.1,1.1-0.1,1.8-0.1,2.3
		c0.1,0,0.2-0.1,0.3-0.2c0.3-0.2,0.6-0.7,0.9-1.3c0.1-0.2,0.3-0.5,0.4-0.8l0,0c0.9-1.8,1.9-3.1,3.1-3.9c1.2-0.8,2.6-1.1,4.2-0.9l0,0
		l0,0l0,0c0.2,0,0.4,0.1,0.6,0.1c0.2,0,0.4,0,0.6,0.1c1.1,0.1,2.3,0.1,3.6,0.1v0l0.1,0h0c0.4,0,0.8,0.1,1.2,0.2
		c0.4,0.1,0.7,0.3,1.1,0.5c1.8,1,3.3,3.2,4.7,6.6l0.1,0.1h0c0.2,0.4,0.4,0.9,0.5,1.3c0.2,0.5,0.3,0.9,0.4,1.4c0.7,2.4,1,5.3,1,8.5v0
		l0,0c-0.1,1.1-0.1,2.1,0,3.1c0.1,1,0.2,1.9,0.4,2.8c0.9,4.2,4.1,7.9,8,10.3l-0.1,0.8c-4.2-2.6-7.7-6.5-8.6-11
		c-0.2-0.9-0.3-1.9-0.4-2.9c-0.1-1-0.1-2.1,0-3.2l0,0h0c0-3.2-0.3-5.9-0.9-8.3c-0.1-0.5-0.3-0.9-0.4-1.4c-0.2-0.4-0.3-0.9-0.5-1.3
		l0,0l-0.1-0.1l0,0c-1.3-3.3-2.7-5.3-4.4-6.3c-0.3-0.2-0.6-0.3-0.9-0.4c-0.3-0.1-0.6-0.1-1-0.1l-0.1,0v0c-1.3,0-2.6,0-3.7-0.1
		c-0.2,0-0.4,0-0.6-0.1c-0.2,0-0.4,0-0.6-0.1l0,0l0,0h0c-1.4-0.2-2.6,0-3.7,0.8c-1.1,0.7-2.1,1.9-2.9,3.6l0,0
		c-0.1,0.3-0.3,0.5-0.4,0.8c-0.4,0.7-0.8,1.2-1.1,1.5c-0.4,0.4-0.8,0.5-1.2,0.3l0,0l0,0l-0.2-0.1l0-0.2c0-0.4,0-1.3,0.1-2.7
		c0-0.3,0-0.6,0.1-0.9c0-0.3,0.1-0.7,0.1-1l0-0.1h0c0.1-1.4,0-2.5-0.2-3.3v0c0-0.1-0.1-0.3-0.1-0.4c0-0.1-0.1-0.2-0.1-0.3
		c-0.7-1-1.3-1.8-1.9-2.4c-0.1-0.1-0.2-0.3-0.3-0.4l0,0c-0.1-0.1-0.2-0.2-0.3-0.3l0,0l0,0l0,0l0,0c-0.5-0.9-1.4-1.6-2.5-1.9
		c-1.2-0.4-2.6-0.4-4.4-0.2l0,0l-88.9,8.5v0c-2,0.2-3.4,0.9-4.1,1.9v0c-0.1,0.2-0.3,0.4-0.4,0.7c-0.1,0.2-0.2,0.5-0.3,0.8l0,0l0,0
		l0,0c-0.6,1.6-1.3,2.6-2.1,3.3c-0.2,0.1-0.3,0.2-0.5,0.3c-0.2,0.1-0.3,0.2-0.5,0.2l0,0l0,0l-0.1,0l-0.1,0c-0.7-0.1-1.4,0.1-1.8,0.6
		c-0.1,0.1-0.2,0.2-0.3,0.4c-0.1,0.1-0.2,0.3-0.2,0.4v0l0,0l0,0c-1,1.9-1.9,3.2-2.8,3.9c-0.2,0.2-0.4,0.3-0.6,0.4
		c-0.2,0.1-0.4,0.2-0.6,0.3l0,0l-0.1,0l-0.1,0c-2.7,0-4.2,0.3-4.7,1l0,0c-0.2,0.4-0.7,0.7-1.3,1l0,0c-0.1,0.1-0.3,0.1-0.4,0.2
		c-0.1,0-0.3,0.1-0.4,0.2h0l0,0l0,0l0,0c-1.8,0.1-3.2,0.4-4.2,0.9c-0.5,0.2-0.9,0.5-1.2,0.8c4.8,5.7,11.4,9.9,19.5,13.1
		c8.2,3.3,18,5.6,29,7.5c34.1,6,59.1,14.1,77.7,25.5c18.5,11.3,30.7,25.9,39.2,45c7.9,0,14.9,0.1,17.2,0c3.4,0,7-0.5,9.2-3.3
		c1.7,1.3,1.9,2.8,1.4,5.1c0.3,0,0.7,0.1,1,0.1l1.4-1.5c8.5-19.3,20.7-34,39.4-45.4c18.6-11.4,43.6-19.4,77.7-25.5
		c11-1.9,20.8-4.2,29-7.5c8.2-3.3,14.9-7.5,19.7-13.4c1.2-1.5,2.4-3.1,3.5-4.8c-7.2-0.6-18.1-5.6-26.3-10.6c-2.1-1.3-4-2.5-5.7-3.7
		c-1.7-1.2-3.1-2.3-4.1-3.3l0,0l0,0l0,0c-5.7-5.4-10.8-8.6-15-9.9c-0.8-0.2-1.6-0.4-2.3-0.5c-0.7-0.1-1.4-0.1-2.1-0.1l0,0h0
		c-2.2,0-4.4,0.4-6.4,1c-2,0.6-3.9,1.5-5.6,2.8l0,0c-3.2,1.8-6,2.4-8.4,1.7c-0.5-0.1-1-0.3-1.4-0.6l0,0c-0.5-0.2-0.9-0.5-1.3-0.9
		l0,0l-0.2-0.1c-3.9-2.8-11.5-10.3-15-11.8c-0.5-0.2-1.1-0.4-1.6-0.5c-0.5-0.1-1-0.2-1.5-0.3l0,0v0c-2.1-0.1-4-0.2-5.6-0.3
		c-1.6-0.1-2.9-0.1-4-0.2h0c-3-0.1-5.4-0.1-7.3,0c-1.8,0.1-3,0.3-3.6,0.6l0,0l0,0c-6.7,1.6-11.7,5-14.8,10.4c-0.6,1-1.1,2.2-1.6,3.4
		c-0.5,1.2-0.9,2.5-1.2,3.8l0,0c-0.8,3.6-2.1,6.8-4,9.7c-1.8,2.9-4.1,5.5-7,7.7l0,0l0,0c-3.8,2.4-7.1,5-10,8
		c-0.6,0.6-1.8,1.9-2.3,2.5c-0.5,0.6-1,1.2-1.5,1.8l0,0c-0.1,0.1-0.2,0.2-0.4,0.1l-0.1-0.7c0.5-0.7,1.6-1.9,2.1-2.5
		c0.5-0.6,1.1-1.2,1.6-1.8c2.9-3,6.3-5.7,10.1-8.1c2.8-2.2,5-4.7,6.8-7.5c1.8-2.8,3.1-6,3.9-9.5l0,0l0,0h0c0.3-1.4,0.8-2.7,1.2-3.9
		c0.5-1.2,1-2.4,1.7-3.5c3.2-5.6,8.3-9.1,15.2-10.8c0.7-0.3,2-0.5,3.9-0.6c1.8-0.1,4.3-0.1,7.3,0c1.1,0,2.4,0.1,4,0.2
		c1.6,0.1,3.5,0.2,5.6,0.3l0,0l0,0c0.5,0.1,1.1,0.2,1.6,0.3c0.5,0.1,1.1,0.3,1.7,0.6c5.1,2.1,10.4,8.3,15.2,11.9l0,0l0.2,0.1l0,0
		c0.4,0.3,0.8,0.6,1.2,0.8v0c0.4,0.2,0.8,0.4,1.3,0.5c2.3,0.7,4.9,0.1,7.9-1.6c1.8-1.3,3.8-2.2,5.8-2.8c2.1-0.6,4.3-1,6.6-1v0l0,0
		c0.7,0,1.5,0,2.2,0.1c0.8,0.1,1.6,0.3,2.4,0.5c4.3,1.3,9.5,4.5,15.3,10l0,0l0,0l0,0c1,1,2.4,2.1,4,3.2c1.7,1.2,3.6,2.5,5.6,3.7
		c8.4,5.1,19.4,10.2,26.4,10.6c3.4-5.3,6.1-11.5,8.2-18.6c0.5-1.9,1-3.8,1.5-5.8c0.5-2,0.9-4.1,1.2-6.2l0,0l0.4-2.2l0.6,2.1
		c2.3,8.3,4.1,15.9,5.5,22.9c0.9,4.8,1.6,9.3,2,13.6c0.4,4.1,1.1,8-0.8,11.9c-0.2,0.4-0.4,0.8-0.6,1.1c-0.2,0.3-0.3,0.5-0.5,0.8
		c2.5,2.2,1.9,5.6-1.7,10.1c3.3,1.8,2.9,5.3-1.2,10.5l0.1,0.1c1,1.5,1.1,3,0.4,4.7c-0.7,1.6-2.1,3.3-4.3,5.1
		c-0.8,0.6-1.6,1.3-2.6,1.9c-0.4,3.9-2.7,7-7,9.5c-0.8,0.5-1.8,0.9-2.7,1.3c-0.9,0.4-1.9,0.8-3,1.1c-4,10.2-13.2,16.6-27.6,19.1
		c-2.8,0.5-5.8,0.8-9,1c-3.1,0.2-6.4,0.3-10,0.2c-6.6,7.2-11.8,7.1-29.7,6.7l-2.3-0.1v0h-57l0,0c-3.8-0.1-6.8,0.9-8.9,3.1l0,0
		c-0.4,0.4-0.8,0.9-1.1,1.4c-3.1,4.6-7.7,8.2-11.9,12c1.9,2.8,2.9,6,2.5,9.4c3.9,2.7,2.3,5.1,1.1,8.4c-1.8,2.1,10.2,15.9,11.9,12.7
		c0.7-1.4,2.2-1.9,3.8-1.9c8.7-1,28.1-4.3,34.9,3.1c-4.6,1.2-10.4,3.1-11.6,8.3c1.7,1.8,3.8,2.1,2.4,5.6c-1,4.9-3.8,7.6-8.4,8.6
		c1.2-2.2,0.3-4.6,0.7-7c0.4-2.5-1.3-1.6-2.7-1.4c0.1,0.1,1.2,1.7,1.2,1.7c2.5,4.1-4.5,8.1-6.7,9.6c-3.3,2.4-7.1,1.5-10.2-0.8
		c-6.3-3.1-5.5-11.8,2-11.2c1.6,0.1,1-1,1.8-2.5c-2.4-4.3-8-5.5-12.5-5.9c0.9,1.8,1.2,3.8,1.6,5.7c-1.9-0.3-3.7-0.6-5.6-1
		c1.2,1.3,2,2.8,2.7,4.5c-1.9-0.6-3.9-1.3-6-1.4c1.5,2.9,4.9,4.7,4,8.6c-3.5-1-6.8-2.4-10-4.1c0.6,1.9,1.8,4.8,0.7,6.7
		c-1.5-0.4-2.9-1-4.1-2.2c0,0.9,0,1.8,0,2.8c-4.6,1.9-9.6-2.6-12.5-5.4C300.2,553.8,300.1,555.7,299.9,557.4L299.9,557.4z
		 M247.7,550.2c-1.1,3.1-3.5,2.6-2.4,6.1c1.7-0.5,3.4-2.7,5-2.8c-0.2-1-0.1-2,0.2-2.9C249.5,550.8,248.5,550.6,247.7,550.2
		L247.7,550.2z M345.9,550.4c-0.9,0.4-2.1,0.1-3.1-0.1c0.3,0.9,0.4,2,0.2,2.9c2,0.1,5.4,5.8,5.8,1.4h0
		C348.8,553.8,346.3,551.7,345.9,550.4L345.9,550.4z"/>
	<path class="st3" d="M118.7,403.1c5.5,10.8,27.7,21.9,66.4,33.3c42.3,11.1,70.4,27.4,84.3,48.7c7.7,1,4.5-7.4-9.8-25.4
		c-5.3-5.2-11.2-9.8-18.1-14c-18.5-11.3-43.4-19.3-77.4-25.3c-11.1-2-20.9-4.3-29.2-7.6C128.6,410.2,123.1,407.1,118.7,403.1
		L118.7,403.1z M98.8,412.8c-1.7-1.8-2.3-3.4-1.8-4.7c0.7-1.7,2.8,0.9,7.5,2.3c2.4,0.8,6.1,1.1,7.4,3c0.4,0.5,0.5,1.1,0.4,1.8
		c-0.5,3.1-3.1,2.3-5.6,1.8C103.7,416.4,100.9,415,98.8,412.8L98.8,412.8z M98.8,418c0.3,1.6,2.4,4.1,5.9,5.5h10.4
		c0.7-1.7,0.7-3,0.1-4c-0.6-1-2.3-1-3.9-1.2c-1.8-0.2-3.5-0.4-4.8-0.6c-0.7-0.1-2.1-0.5-3.3-0.9C100.7,416,98.2,415.1,98.8,418
		L98.8,418z M97.2,405c-2.2-3.1-2.4-5-0.8-5.7c0.7-0.3,2.4,1,4,2c1.6,1,3.2,1.8,3.9,2.4c0.8,0.4,4,2.6,4.7,4.7
		c1,3.2-0.9,2.2-2.6,1.8c-0.6-0.2-1.2-0.3-1.7-0.5C101.9,408.7,98.8,407.3,97.2,405L97.2,405z M96.8,396.9c-1.4-2.8-1.5-5.3,2.4-3.9
		l0,0c6.8,3.1,2.9,6.1,5.3,9.8C102,401.2,98.1,399.7,96.8,396.9L96.8,396.9z M98.3,385.5l1.9,1.1v0c2.7,1.5,13.6,8.1,5.3,9.9
		c-1.6-1.9-3.7-3.2-6.1-4.1v0C96.9,391.5,94.2,385.4,98.3,385.5L98.3,385.5z M99,385c-0.8-2.6-0.4-4.8,1.3-6.9
		c0.5-1,1.1,0.2,1.8,3.4c0.2,0.9,0.8,2.1,1.9,3.7c1,1.6,1,2.6,0.3,2.8c-1.2-0.7-2.5-1.4-3.7-2.1l0,0L99,385L99,385z M116.7,424.3
		c2.4,0.7,3.7,1.9,4,3.7c0.6,1.8,1.8,3.1,3.7,4.1h-19.2c-9.5-3.9-4.6-8-3.2-7.8H116.7L116.7,424.3z M125.2,432.8
		c-0.1,3.5,1.3,6,4,7.6h-20.6c-7.1-1.3-7.9-7.2-3.2-7.6H125.2L125.2,432.8z M130.5,441.1c3.5,2.3,5.9,5.1,7.1,8.5h-20.2
		c-5.4-1.5-7.6-2.4-9.1-3.8c-1.6-1.5-1.9-4.6,0.8-4.8H130.5L130.5,441.1z M139.1,450.4c5.3,1.6,8.2,4.3,8.8,7.9h-18.9
		c-3.3-0.7-5.9-1.5-8-2.2c-6.3-2.1-6.9-5.7-3.2-5.8H139.1L139.1,450.4z M148.4,459c2.9,2.3,7.2,3.6,12.8,4c0.6,2.2,2.1,4.1,4.4,5.8
		l0.3,0.5c-27.7,0.2-39.5-3.3-35.5-10.4H148.4L148.4,459z M119.6,417.5c-4.8-3.1-6.4-5.1-5-6h8c4.1,1.8,6,3.8,5.6,6H119.6
		L119.6,417.5z M114.9,410.7c-4.9-2.3-6.4-4.2-4.6-5.8h6c3.2,2,4.5,3.9,3.7,5.8H114.9L114.9,410.7z M110.2,404.1
		c-3.1-2-4.4-4-3.8-6.1l0,0c1.3-2.7,8,3.1,7,6.1H110.2L110.2,404.1z M131.3,418.4c6.1,2.3,9.8,4.6,9.8,6.8h-15.2
		c-6.6-3.2-8.8-5.5-6.5-6.8H131.3L131.3,418.4z M145.8,426c7.8,1.6,11.2,5.2,10.7,7.7h-23.4c-7.7-3.3-10.1-5.9-7.2-7.7H143H145.8
		L145.8,426z M166.3,434.6c7.9,1.9,11.9,4.6,12,8h-36.6c-8.4-3-11.1-5.7-8.1-8H166.3L166.3,434.6z M193.5,443.5
		c10.6,2.1,15.6,4.8,14.9,8.3h-56.9c-9.9-3.4-13.1-6.1-9.5-8.3h41.1h8.1H193.5L193.5,443.5z M218.1,452.6c6.9,1.7,10,4.9,9.3,9.7
		h-60.2c-13.9-3.7-19-6.9-15.2-9.7h60.4h3.6H218.1L218.1,452.6z M235.3,463.2c4.5,4,3.5,7.2-2.9,9.4h-41.9
		c-18.4-3.2-25.8-6.3-22.2-9.4h63.5H235.3L235.3,463.2z"/>
	<path class="st0" d="M474.4,403.1c-5.5,10.8-27.7,21.9-66.4,33.3c-42.3,11.1-70.4,27.4-84.3,48.7c-7.7,1-4.5-7.4,9.8-25.4
		c5.3-5.2,11.2-9.8,18.1-14c18.5-11.3,43.4-19.3,77.4-25.3c11.1-2,20.9-4.3,29.2-7.6C464.5,410.2,469.9,407.1,474.4,403.1
		L474.4,403.1z M494.3,412.8c1.7-1.8,2.3-3.4,1.8-4.7c-0.7-1.7-2.8,0.9-7.5,2.3c-2.4,0.8-6.1,1.1-7.4,3c-0.4,0.5-0.5,1.1-0.4,1.8
		c0.5,3.1,3.1,2.3,5.6,1.8C489.3,416.4,492.2,415,494.3,412.8L494.3,412.8z M494.2,418c-0.3,1.6-2.4,4.1-5.9,5.5h-10.4
		c-0.7-1.7-0.7-3-0.1-4c0.6-1,2.3-1,3.9-1.2c1.8-0.2,3.5-0.4,4.8-0.6c0.7-0.1,2.1-0.5,3.3-0.9C492.3,416,494.8,415.1,494.2,418
		L494.2,418z M495.9,405c2.2-3.1,2.4-5,0.8-5.7c-0.7-0.3-2.4,1-4,2c-1.6,1-3.2,1.8-3.9,2.4c-0.8,0.4-4,2.6-4.7,4.7
		c-1,3.2,0.9,2.2,2.6,1.8c0.6-0.2,1.2-0.3,1.7-0.5C491.2,408.7,494.3,407.3,495.9,405L495.9,405z M496.3,396.9
		c1.4-2.8,1.5-5.3-2.4-3.9l0,0c-6.8,3.1-2.9,6.1-5.3,9.8C491.1,401.2,494.9,399.7,496.3,396.9L496.3,396.9z M494.8,385.5l-1.9,1.1v0
		c-2.7,1.5-13.6,8.1-5.3,9.9c1.6-1.9,3.7-3.2,6.1-4.1v0C496.2,391.5,498.9,385.4,494.8,385.5L494.8,385.5z M494.1,385
		c0.8-2.6,0.4-4.8-1.3-6.9c-0.5-1-1.1,0.2-1.8,3.4c-0.2,0.9-0.8,2.1-1.9,3.7c-1,1.6-1,2.6-0.3,2.8c1.2-0.7,2.5-1.4,3.7-2.1l0,0
		L494.1,385L494.1,385z M476.3,424.3c-2.4,0.7-3.7,1.9-4,3.7c-0.6,1.8-1.8,3.1-3.7,4.1h19.2c9.5-3.9,4.6-8,3.2-7.8H476.3
		L476.3,424.3z M467.9,432.8c0.1,3.5-1.3,6-4,7.6h20.6c7.1-1.3,7.9-7.2,3.2-7.6H467.9L467.9,432.8z M462.6,441.1
		c-3.5,2.3-5.9,5.1-7.1,8.5h20.2c5.4-1.5,7.6-2.4,9.1-3.8c1.6-1.5,1.9-4.6-0.8-4.8H462.6L462.6,441.1z M454,450.4
		c-5.3,1.6-8.2,4.3-8.8,7.9h18.9c3.3-0.7,5.9-1.5,8-2.2c6.3-2.1,6.9-5.7,3.2-5.8H454L454,450.4z M444.7,459c-2.9,2.3-7.2,3.6-12.8,4
		c-0.6,2.2-2.1,4.1-4.4,5.8l-0.3,0.5c27.7,0.2,39.5-3.3,35.5-10.4H444.7L444.7,459z M473.4,417.5c4.8-3.1,6.4-5.1,5-6h-8
		c-4.1,1.8-6,3.8-5.6,6H473.4L473.4,417.5z M478.2,410.7c4.9-2.3,6.4-4.2,4.6-5.8h-6c-3.2,2-4.5,3.9-3.7,5.8H478.2L478.2,410.7z
		 M482.8,404.1c3.1-2,4.4-4,3.8-6.1l0,0c-1.3-2.7-8,3.1-7,6.1H482.8L482.8,404.1z M461.7,418.4c-6.1,2.3-9.8,4.6-9.8,6.8h15.2
		c6.6-3.2,8.8-5.5,6.5-6.8H461.7L461.7,418.4z M447.2,426c-7.8,1.6-11.2,5.2-10.7,7.7h23.4c7.7-3.3,10.1-5.9,7.2-7.7H450H447.2
		L447.2,426z M426.8,434.6c-7.9,1.9-11.9,4.6-12,8h36.6c8.4-3,11.1-5.7,8.1-8H426.8L426.8,434.6z M399.6,443.5
		c-10.6,2.1-15.6,4.8-14.9,8.3h56.9c9.9-3.4,13.1-6.1,9.5-8.3H410h-8.1H399.6L399.6,443.5z M374.9,452.6c-6.9,1.7-10,4.9-9.3,9.7
		h60.2c13.9-3.7,19-6.9,15.2-9.7h-60.4h-3.6H374.9L374.9,452.6z M357.8,463.2c-4.5,4-3.5,7.2,2.9,9.4h41.9
		c18.4-3.2,25.8-6.3,22.2-9.4h-63.5H357.8L357.8,463.2z"/>
	<path class="st4" d="M251.8,554.4c-2.6-0.3-2.9,1.3-5,2.2c2.8,1.7,5.5,1.1,7.9-0.7c8.1-4.8-0.2-12.1-2.3-7.5
		C251.9,549.5,250.7,551.7,251.8,554.4L251.8,554.4z"/>
	<path class="st4" d="M341.3,554.4c2.6-0.3,2.9,1.3,5,2.2c-2.8,1.7-5.5,1.1-7.9-0.7c-8.1-4.8,0.2-12.1,2.3-7.5
		C341.1,549.5,342.3,551.7,341.3,554.4L341.3,554.4z"/>
	<path class="st4" d="M241.1,546c-2.6,3.3-2.9,4.5,0.6,7.3c2.4-1.7,6.3-3.5,5.1-7.6c-0.1-0.3,0.1-0.5,0.3-0.6
		c1.2-0.3,0.9,3.2,0.8,3.8c1,0.6,2.9,1,3.3-0.3c1.1-3.9-2.5-11.1-6.6-6.3C243.5,543.6,242.2,544.7,241.1,546L241.1,546z"/>
	<path class="st4" d="M352,546c2.6,3.3,2.9,4.5-0.6,7.3c-2.4-1.7-6.3-3.5-5.1-7.6c0.1-0.3-0.1-0.5-0.3-0.6c-1.2-0.3-0.9,3.2-0.8,3.8
		c-1,0.6-2.9,1-3.3-0.3c-1.1-3.9,2.5-11.1,6.6-6.3C349.5,543.6,350.8,544.7,352,546L352,546z"/>
	<path class="st4" d="M238.8,495.9c-7-0.1-11.1,3.9-10,10.6c3.2-3.6,6.5-4.6,9.9-2.8C237.7,501.3,237.8,498.3,238.8,495.9
		L238.8,495.9z"/>
	<path class="st4" d="M243.2,542.4c-1-2.5-6.6-8.4-9.1-4c-1,2-5.3,5-4.1,7.4c1.3,2.8,1.8,4.9,4.2,6.2c0.7-1.5,0.9-3.4,0.4-5.7h0
		c-0.2-0.1-0.3-0.2-0.5-0.2c-0.7-0.1-0.1-1.8,1.5-0.5c0.9-0.7,1.4-1.5,1.5-2.5l0,0l0,0l0,0c0-0.1,0-0.2,0-0.3l0,0l0,0
		c0.1-0.3,0.2-0.4,0.4-0.5c0.7-0.1,0.5,0.7,0.5,1.5c1.1,0.6,2.3,0.6,3.6-0.1C242.2,543.4,242.7,542.9,243.2,542.4L243.2,542.4z"/>
	<path class="st4" d="M349.9,542.4c1-2.5,6.6-8.4,9.1-4c1,2,5.3,5,4.1,7.4c-1.3,2.8-1.8,4.9-4.2,6.2c-0.7-1.5-0.9-3.4-0.4-5.7h0
		c0.2-0.1,0.3-0.2,0.5-0.2c0.7-0.1,0.1-1.8-1.5-0.5c-0.9-0.7-1.4-1.5-1.5-2.5l0,0l0,0l0,0c0-0.1,0-0.2,0-0.3l0,0l0,0
		c-0.1-0.3-0.2-0.4-0.4-0.5c-0.7-0.1-0.5,0.7-0.5,1.5c-1.1,0.6-2.3,0.6-3.6-0.1C350.8,543.4,350.4,542.9,349.9,542.4L349.9,542.4z"
		/>
	<path class="st0" d="M239,499.1c-0.4,3.3,1.8,5.5,6.4,6.6c-0.9-1-1.2-1.8-1.2-2.5c2.9,1.7,6.6,2,10.9,0.8c0.9-0.4,2.1,0.2,3.4,1.8
		c1.1-0.6,1.3-1.5,0.4-2.6c4.8,3.2,5.6,2.7,2.4-1.4c5.6,1.4,6.3,0.5,1.9-2.6c6.7-0.6,7.8-1.8,3.5-3.5c6.3-0.8,5.9-1.7-1.3-2.7
		c1.6-0.4,2.5-1.1,2.7-2.4h-19c-3.4-0.2-5.9,1.2-7.4,2.6c0.7,0.7,2.2,0.8,4.6,0.5c2.3-0.6,4.1-0.7,5.4,0c-1.8-0.2-3.2,0.2-4.1,1.1
		c-0.3,1.8-1.4,2.5-3.4,2.3c-1.3-0.3-2-1.1-2.1-2.4c-0.4-0.3-0.7-0.6-0.9-0.9c-0.3,0.3-0.5,0.6-0.7,0.9
		C239.7,495.9,239.2,497.5,239,499.1L239,499.1z"/>
	<path class="st0" d="M224.1,532.5c15.4,3.8,25.3,3.5,29.8-0.7c-2.9-0.3-6-1.1-9.2-2.6c-8.4-1-18-1.9-23.1,2.5
		C222.5,532,223.3,532.2,224.1,532.5L224.1,532.5L224.1,532.5z"/>
	<path class="st0" d="M368.9,532.5c-15.4,3.8-25.3,3.5-29.8-0.7c2.9-0.3,6-1.1,9.2-2.6c8.4-1,18-1.9,23.1,2.5
		C370.5,532,369.7,532.2,368.9,532.5L368.9,532.5L368.9,532.5z"/>
	<path class="st0" d="M305.9,491.6c1.3-1.1,1.9-2.3,2-3.6l-0.1-0.1c-2.8,3-7.9,3-11.8,2.8l-27,0l0,0c-0.4,1.5,1.2,3,4.7,4.6
		c2,0.4,4.1,1.3,6.3,2.7c0.5-2.5-0.5-4.2-3.1-5.1l0,0c2.1-0.1,4.2,0.8,6.3,2.9c1.5,1.7,4.1,2.2,7.9,1.7c2.3-0.3,4.2,0.8,5.8,3.4
		c-1.3-0.4-2.3-0.3-3,0.2l0,0c-0.5,0.4,0.4,1.1,2.9,2.3c2.3,1.4,3.8,2.7,4.4,4.1c3.3-4.9,2-8-3.9-9.3c-2.5-4-5.7-5.2-9.8-3.6
		c-1.4,0.2-2.9-0.2-4.1-1.4l0.3,0.2c1.6,0.5,3.2,0.5,4.8-0.1c3.9-1.5,7-0.4,9.3,3.3c0.7,0.8,2,1.2,4,1.3c1.6-0.2,3.3,0.1,5,1l0,0
		c-0.3-3-2.6-4.5-6.9-4.4c-0.9-0.2-1.5-0.9-2-2.2c4.4-1,8.3,1.5,11.6,7.6l0,0c4.3,5.4,7,9.5,8.1,12.3c2.8-5.3,1.8-9.8-3-13.2
		c-1.1-1.2-1.2-1.9-0.5-2.1c1.2-0.1,2,0.7,2.3,2.6l-0.1-0.3C319,493.1,309.8,492.8,305.9,491.6L305.9,491.6z"/>
	<path class="st0" d="M263.9,503.7c0.1,4.4,2.3,6.3,6.5,5.7c-0.1-2.6-1.6-4.4-4.5-5.5L263.9,503.7L263.9,503.7z"/>
	<path class="st0" d="M265.9,499.8c2.4,4.6,4.5,6.1,6.4,4.5c0.9,0.6,2.2,1,3.8,1.4c0.2-1.1-1-3.2-3.6-6.2c2.3-0.6,4.7,0.4,7.4,2.9
		c0.9-2.2-1.1-4.2-6.1-6c-0.8,0.7-1.8,1-2.9,0.9C270.2,498.8,268.5,499.6,265.9,499.8L265.9,499.8L265.9,499.8z"/>
	<path class="st0" d="M272.8,511.8c2.3,2,3.4,4.4,3.2,7.2c-4-1.6-6.1-4.2-6.5-7.8l0,0c2-0.7,2.7-2.2,2-4.5c4.2-0.6,7.4,1.7,9.6,6.7
		l0,0C278.9,513.6,276.1,513.1,272.8,511.8L272.8,511.8L272.8,511.8z"/>
	<path class="st0" d="M279.1,504c1.8,0,2.7-0.4,2.8-1.2c2.6,1.3,4.1,3.2,4.7,5.8C280.2,508.7,277.6,507.2,279.1,504L279.1,504z"/>
	<path class="st0" d="M281,496.4c0.4,0.7,0.4,1.9,0.1,3.4c2.5,2.5,4.9,3,7.2,1.7c0.7-0.4,1.6-0.3,2.5,0.4c-0.1-2-1.5-2.9-4.3-2.8
		c-1.2,1-2.6,0.1-4.2-2.7L281,496.4L281,496.4z"/>
	<path class="st0" d="M287.7,503.8c2.5,0.7,4.5,0.5,5.9-0.7c3.6,1.5,4.8,4.5,3.7,9.1C291,511.3,287.8,508.6,287.7,503.8L287.7,503.8
		z"/>
	<path class="st0" d="M283,510c6.8-0.5,9.7,2.2,8.7,8.2l0,0C285.4,517,282.5,514.2,283,510L283,510L283,510z"/>
	<path class="st0" d="M279,514.1c4.3,0.5,6.4,3.5,6.3,9C279.5,521.9,277.4,518.8,279,514.1L279,514.1z"/>
	<path class="st0" d="M276.7,527.4c-0.1-2.1-1-3.8-2.8-4.8c-0.6-2.3,0.1-3.1,2-2.4C278.6,522,278.9,524.4,276.7,527.4L276.7,527.4
		L276.7,527.4z"/>
	<path class="st0" d="M300.1,528.6c-0.7-4.2-2.6-7.3-5.7-9.1c-0.4-1.6-0.4-3.1-0.1-4.6c3.3-1.1,5.8-0.1,7.6,2.8
		C303.8,521.9,303.3,525.6,300.1,528.6L300.1,528.6z"/>
	<path class="st0" d="M290.1,520.3c2.8,0.1,4.7,1,5.8,2.9c-0.4,0.5-0.5,2-0.2,4.4c0.5,3-0.1,4.7-2.1,4.7c-0.2-1.9-1.4-3.7-3.5-5.3
		C287.1,524,287.1,521.8,290.1,520.3L290.1,520.3L290.1,520.3z"/>
	<path class="st0" d="M287.2,528.2c-0.9,2.2-1.2,4.4-1,6.5l0,0c-6.5-3.3-8.2-6.4-5.1-9.3l0,0c1.2,1,2.5,0.9,4.1-0.5
		C286.2,524.8,286.9,525.9,287.2,528.2L287.2,528.2L287.2,528.2z"/>
	<path class="st0" d="M306.7,521.8c-0.2-2.3-1.6-4.5-4.2-6.5c-1.1-1.5-1.2-3.3-0.3-5.4c1.2-1.6,2.8-1.5,4.6,0.1
		C310.8,514.1,310.9,519.6,306.7,521.8L306.7,521.8L306.7,521.8z"/>
	<path class="st0" d="M306.7,500.2c-1.8,4.7-0.8,8.3,3,10.9c3-2,2.9-4.8-0.5-8.3C308.2,501.8,307.3,501,306.7,500.2L306.7,500.2
		L306.7,500.2z"/>
	<path class="st0" d="M313.5,508.8c-0.6,1.8-1.4,3-2.5,3.6c0.5,2.5,1.8,3.7,3.8,3.4C316.3,514.8,315.8,512.5,313.5,508.8
		L313.5,508.8L313.5,508.8z"/>
	<path class="st0" d="M310.9,522.5c1.5-1,2.3-2.4,2.4-4.2c2,0.1,3.2,1.5,3.6,4c0.7,4.2-0.3,6.7-3.3,7.6
		C314,527.4,313.1,524.9,310.9,522.5L310.9,522.5z"/>
	<path class="st0" d="M319.4,518.1c-0.7-1.3-1.7-2.1-2.2-1.8c-0.5,0.3-0.3,1.6,0.4,2.9c0.7,1.3,1.7,2.1,2.2,1.8
		C320.3,520.7,320.2,519.4,319.4,518.1L319.4,518.1z"/>
	<path class="st0" d="M320.3,515.5c0.2,1.6,0.9,2.7,1.5,2.7c0.6-0.1,1-1.4,0.8-3c-0.2-1.6-0.9-2.7-1.5-2.7
		C320.4,512.6,320.1,513.9,320.3,515.5L320.3,515.5z"/>
	<path class="st0" d="M297.9,529.1c2,1.6,3.6,1.7,5,0.2c0.8,1.5,1.4,2.7,1.9,3.5c-2.3,3.5-5.3,4.8-8.9,3.9c2.5-1.8,2.8-3.9,1.1-6.5
		L297.9,529.1L297.9,529.1z"/>
	<path class="st0" d="M290.6,536.7c0-1-0.5-1.9-1.6-2.7c-1.6-1.1-1.5-2.3,0.2-3.4l0,0c1.1-0.4,2.1,0.2,3.1,1.8
		C293.3,534.7,292.8,536.1,290.6,536.7L290.6,536.7L290.6,536.7z"/>
	<path class="st0" d="M296.7,544.5c0.7-2,1-3.5,0.8-4.5c0.4,0,1,0.2,1.6,0.7c0.6,0.5,9.7,7.4,6.8,8.9c-1.1,0.3-1.6-0.2-1.7-1.5l0,0
		c-0.2-2-1.2-3.6-3.1-4.8c-0.7-0.6-1.8-1.6-2.7-1.8c3.1,9.6,7.4,14.4,13.1,14.4c0.3-2.3-0.8-5.6-3.3-9.9c-1.6-2-2.7-3.8-3.1-5.4
		c2.4,4.1,5.3,7.2,8.7,9.5c-0.5-3.6-2.5-7.3-4.4-10.4c4.1,6.4,7.9,9.8,11.4,10.2c-1.9-2.9-3.1-5.7-3.6-8.3c-1.6-1.2-2.6-2.6-3-4.2
		c1.2,1.8,3.2,2.9,5.8,3.5c0-1.7-1.1-4-3.1-6.8c4.6,3.9,8.6,6.1,12.2,6.7c0-1.5-2.1-4.5-6.4-9c1.5,0.6,2.5,1,3.2,1.2
		c-0.4-2.5-2.1-4.6-5.1-6.4c-0.4,1.3-1.2,2.6-2.2,3.7c1.6,2,3.2,3.6,4.7,4.8c-1.9-0.2-3.8-1.4-5.8-3.7c-0.9,0.8-1.9,1.6-3,2.3
		c1.1,1,1.8,2,2,3c-0.6-0.4-1.5-1.2-2.8-2.5c-0.9,0.5-2,1-3,1.5c0.9,2.1,1.9,3.7,3.1,4.8c-1.4-0.3-2.7-1.8-3.9-4.5
		c-0.8,0.3-1.7,0.6-2.7,0.9c0.4,0.9,0.7,2,1.1,3.3c-0.7-0.4-1.5-1.4-2.3-3c-0.6,0.1-1.1,0.3-1.7,0.4c0.4,1.4-0.2,1.5-1.9,0.3
		c-1.8,0.3-3.8,0.4-5.7,0.4c-2,0-3.9-0.1-5.7-0.4c-1.7,1.2-2.4,1.1-1.9-0.3c-0.6-0.1-1.2-0.2-1.7-0.4c-0.8,1.6-1.6,2.6-2.3,3
		c0.4-1.3,0.8-2.4,1.1-3.3c-0.9-0.3-1.8-0.6-2.7-0.9c-1.3,2.6-2.6,4.1-3.9,4.5c1.2-1.1,2.3-2.7,3.1-4.8c-1.1-0.4-2.1-0.9-3-1.5
		c-1.3,1.3-2.3,2.1-2.8,2.5c0.3-0.9,0.9-1.9,2-3c-1.1-0.7-2.1-1.5-3-2.3c-2,2.2-4,3.4-5.8,3.7c1.5-1.3,3.1-2.9,4.7-4.8
		c-1-1.2-1.7-2.4-2.2-3.8c-3,1.8-4.7,3.9-5.1,6.4c0.7-0.2,1.7-0.6,3.2-1.2c-4.3,4.5-6.4,7.5-6.4,9c3.6-0.6,7.6-2.9,12.2-6.7
		c-2.1,2.8-3.1,5-3.1,6.8c2.6-0.6,4.5-1.7,5.8-3.5c-0.4,1.6-1.4,3-3,4.2c-0.5,2.6-1.7,5.4-3.6,8.3c3.5-0.4,7.3-3.8,11.4-10.2
		c-1.9,3.1-3.9,6.7-4.4,10.4c3.4-2.3,6.3-5.4,8.7-9.5c-0.5,1.6-1.5,3.4-3.1,5.4c-2.5,4.3-3.6,7.6-3.3,9.9c5.7,0,10-4.8,13.1-14.4
		c-0.9,0.2-2,1.2-2.7,1.8c-1.8,1.2-2.9,2.8-3.1,4.8l0,0c0,1.3-0.6,1.8-1.7,1.5c-2.9-1.6,6.1-8.4,6.8-8.9c0.6-0.5,1.2-0.8,1.6-0.7
		C295.7,541,295.9,542.5,296.7,544.5L296.7,544.5z M298.4,557.3c0.5-3.4,0.6-7.7,0.3-12.4l-1.2,3.1c0.1,4.8-0.1,7.3-0.5,9.3
		C297.5,557.3,297.9,557.3,298.4,557.3L298.4,557.3z M296.4,557.3c-0.4-2-0.6-4.5-0.5-9.3l-1.2-3.1c-0.3,4.7-0.2,9,0.3,12.4
		C295.4,557.3,295.9,557.3,296.4,557.3L296.4,557.3z"/>
	<path class="st0" d="M307.2,532.9c4.4-3.4,4-6.5-1.4-9.3v0c-0.4,2-0.9,3.4-1.6,4.3C305.6,528.9,306.6,530.6,307.2,532.9
		L307.2,532.9L307.2,532.9z"/>
	<path d="M299.7,309.1c0.1,0.1,0.1,0.2,0.1,0.3c-0.1,0.1-0.2,0.1-0.3,0.1l-3-2l-3,2c-0.1,0.1-0.2,0-0.3-0.1c-0.1-0.1,0-0.3,0.1-0.3
		l3.1-2l0.1-0.1l0.1,0.1L299.7,309.1L299.7,309.1z"/>
	<path d="M300.3,310.3c0.1,0.1,0.2,0.3,0.1,0.4c-0.1,0.1-0.3,0.2-0.4,0.1l-3.5-2.3l-3.5,2.3c-0.1,0.1-0.3,0-0.4-0.1
		c-0.1-0.1,0-0.3,0.1-0.4l3.7-2.4l0.1-0.1l0.1,0.1L300.3,310.3L300.3,310.3z"/>
	<path d="M300.8,311.8c0.1,0.1,0.2,0.3,0.1,0.4c-0.1,0.1-0.3,0.2-0.4,0.1l-4-2.6l-4,2.6c-0.1,0.1-0.3,0-0.4-0.1
		c-0.1-0.1,0-0.3,0.1-0.4l4.2-2.7l0.1-0.1l0.1,0.1L300.8,311.8L300.8,311.8z"/>
	<path d="M301.4,313.5c0.1,0.1,0.2,0.3,0.1,0.4c-0.1,0.1-0.2,0.2-0.4,0.1l-4.6-3l-4.6,3c-0.1,0.1-0.3,0-0.4-0.1
		c-0.1-0.1,0-0.3,0.1-0.4l4.7-3.1l0.1-0.1l0.1,0.1L301.4,313.5L301.4,313.5z"/>
	<path d="M302.2,315.6c0.2,0.1,0.2,0.4,0.1,0.6c-0.1,0.2-0.3,0.2-0.5,0.1l-5.3-3.4l-5.3,3.4c-0.2,0.1-0.4,0.1-0.5-0.1
		c-0.1-0.2-0.1-0.4,0.1-0.6l5.4-3.5l0.2-0.1l0.2,0.1L302.2,315.6L302.2,315.6z"/>
	<path d="M303.2,318.5c0.2,0.1,0.3,0.4,0.1,0.6c-0.1,0.2-0.4,0.3-0.6,0.2l-6.2-4l-6.2,4c-0.2,0.1-0.5,0.1-0.6-0.2
		c-0.1-0.2-0.1-0.5,0.1-0.6l6.4-4.2l0.2-0.1l0.2,0.1L303.2,318.5L303.2,318.5z"/>
	<path d="M304.5,321.9c0.3,0.2,0.4,0.5,0.2,0.8c-0.2,0.3-0.5,0.4-0.8,0.2l-7.3-4.8l-7.3,4.8c-0.3,0.2-0.6,0.1-0.8-0.2
		c-0.2-0.3-0.1-0.7,0.2-0.8l7.6-5l0.3-0.2l0.3,0.2L304.5,321.9L304.5,321.9z"/>
	<path d="M306,326.5c0.3,0.2,0.4,0.6,0.2,0.9c-0.2,0.3-0.6,0.4-0.9,0.2l-8.8-5.7l-8.8,5.7c-0.3,0.2-0.7,0.1-0.9-0.2
		c-0.2-0.3-0.1-0.7,0.2-0.9l9.2-5.9l0.3-0.2l0.3,0.2L306,326.5L306,326.5z"/>
	<path d="M307.7,330.9c0.4,0.3,0.6,0.8,0.3,1.3c-0.2,0.5-0.8,0.6-1.2,0.3l-10.3-6.4l-10.3,6.4c-0.4,0.3-1,0.1-1.2-0.3
		c-0.2-0.5-0.1-1,0.3-1.3l10.7-6.6l0.4-0.3l0.4,0.3L307.7,330.9L307.7,330.9z"/>
	<path d="M274.7,466.6l10.5-127.2l-1.2,0.7c-0.6,0.4-1.4,0.1-1.7-0.5c-0.3-0.6-0.1-1.5,0.5-1.8l13.1-7.9l0.6-0.4l0.6,0.4l13.1,7.9
		c0.6,0.4,0.8,1.2,0.5,1.8c-0.3,0.6-1.1,0.9-1.7,0.5l-1.2-0.7l10.5,127.2l0,0.1l-0.1,0.1c-2,2.5-3.7,5.2-5.2,8.1
		c-1.5,2.9-2.9,5.9-4,9.2l-0.1,0.2h-0.2h-24.6H284l-0.1-0.2c-1.1-3.2-2.4-6.3-4-9.2c-1.5-2.9-3.3-5.6-5.2-8.1L274.7,466.6
		L274.7,466.6L274.7,466.6z"/>
	<path d="M299.6,308.5c0.1,0,0.1,0.1,0,0.2c0,0.1-0.1,0.1-0.2,0l-3-2l-3,2c-0.1,0-0.1,0-0.2,0c0-0.1,0-0.1,0-0.2l3-2l0.1,0l0.1,0
		L299.6,308.5L299.6,308.5z"/>
	<path d="M296.5,298.7L296.5,298.7L296.5,298.7c0.6,0,1.1,0.3,1.5,0.9c0.4,0.5,0.6,1.2,0.6,2h0v0v4.9v0.4l-0.3-0.2l-1.8-1.4
		l-1.9,1.4l-0.3,0.2v-0.4v-4.9h0v0h0c0-0.8,0.2-1.5,0.6-2C295.4,299.1,295.9,298.7,296.5,298.7L296.5,298.7L296.5,298.7L296.5,298.7
		z"/>
	<path class="st5" d="M404.8,489.8c-8.2,13-18.8,24.3-31,33.6c-5.5-1.7-11.6-2.3-18.2-1.6l0,0c-7.4,1.2-13.3,1.5-17.6,1
		c-7.2-0.8-9.8-5.2-7.7-13.2l0,0c-9.3-5.1,0.5-13.7,9.7-17.8c5.5-2.5,10.2-1.9,12.3-1.9H404.8L404.8,489.8z M220.5,523.9
		c-12.5-9.3-23.2-20.9-31.6-34.1h43.4c-7.9,2.9-11.5,7.6-10.9,13.9c0.3,4.4,2.8,8.1,7.3,11.1l0,0c2.2-4.3,7.5-5,15.9-2.3
		c5.3,2.4,9.3,3.3,12,2.7c4.4,0.5,6.4,2.3,5.9,5.4c0.2,1.5-1.5,3.3-5.1,5.4C248.3,523.8,236.1,523.1,220.5,523.9L220.5,523.9z"/>
	<path class="st0" d="M130.6,491.9c-9.5,5.6-11.2,17.8-1.1,20.1c-2-2.7-2.2-6.5-0.3-9.5c2.5-4,7.8-5.3,11.8-2.8
		c4,2.5,5.3,7.8,2.8,11.8c-1,1.6-2.1,2.3-3.4,3.5c-7.3,7-6.7,18,3,18.9c-2.3-2.4-3-6.1-1.6-9.3c1.9-4.3,7-6.3,11.3-4.4
		c4.3,1.9,6.3,7,4.4,11.3c-0.9,2.1-2.9,3.7-4.1,5.7c-4.7,7.7-2.3,17,6.7,16.5c-2.6-2.1-3.8-5.6-2.8-9c1.3-4.6,6.1-7.2,10.6-5.9
		c4.6,1.3,7.2,6.1,5.9,10.6c-0.6,1.9-1.8,3.2-2.7,4.9c-4.6,8.5-1,18.4,8.3,16.7c-2.8-1.7-4.5-5-4-8.5c0.7-4.7,5-7.9,9.7-7.3
		c4.7,0.7,7.9,5,7.3,9.7c-0.3,2.3-1.8,4.4-2.5,6.6c-2.4,8.6,2.4,16.9,10.9,14.1c-3.1-1.3-5.2-4.4-5.1-7.9c0-4.7,3.9-8.5,8.6-8.5
		c4.7,0,8.5,3.9,8.5,8.6c0,1.9-0.8,3.4-1.2,5.2c-2.2,9.3,3.5,18,11.8,14.4c-2.7-1.5-4.6-4.3-4.5-7.6c0-4.7,3.9-8.5,8.6-8.5
		c3.3,0,6.1,1.9,7.5,4.5l0,0c10.5,19.6,25.6,33,45.4,40.2c-104.7-8.3-187.3-95-189-201.4c0.4,2.6,1.1,4.9,2.3,7
		c-2.2,3.7-0.7,8.2,4.3,13.6c-2.4,4.5,2,10,13,16.7c0.3,3.1,2.1,6,5.5,8.5c-5,8.5-4.4,14.2,1.8,17.2c-1.1-2.8-0.7-6.1,1.4-8.6
		c3-3.7,8.4-4.2,12.1-1.2c3.7,3,4.2,8.4,1.2,12.1C132.3,490.8,131.5,491.4,130.6,491.9L130.6,491.9z"/>
	<path class="st0" d="M463.1,491.9c9.5,5.6,11.2,17.8,1.1,20.1c2-2.7,2.2-6.5,0.3-9.5c-2.5-4-7.8-5.3-11.8-2.8
		c-4,2.5-5.3,7.8-2.8,11.8c1,1.6,2.1,2.3,3.4,3.5c7.3,7,6.7,18-3,18.9c2.3-2.4,3-6.1,1.6-9.3c-1.9-4.3-7-6.3-11.3-4.4
		c-4.3,1.9-6.3,7-4.4,11.3c0.9,2.1,2.9,3.7,4.1,5.7c4.7,7.7,2.3,17-6.7,16.5c2.6-2.1,3.8-5.6,2.8-9c-1.3-4.6-6.1-7.2-10.6-5.9
		c-4.6,1.3-7.2,6.1-5.9,10.6c0.6,1.9,1.8,3.2,2.7,4.9c4.6,8.5,1,18.4-8.3,16.7c2.8-1.7,4.5-5,4-8.5c-0.7-4.7-5-7.9-9.7-7.3
		c-4.7,0.7-7.9,5-7.3,9.7c0.3,2.3,1.8,4.4,2.5,6.6c2.4,8.6-2.4,16.9-10.9,14.1c3.1-1.3,5.2-4.4,5.1-7.9c0-4.7-3.9-8.5-8.6-8.5
		c-4.7,0-8.5,3.9-8.5,8.6c0,1.9,0.8,3.4,1.2,5.2c2.2,9.3-3.5,18-11.8,14.4c2.7-1.5,4.6-4.3,4.5-7.6c0-4.7-3.9-8.5-8.6-8.5
		c-3.3,0-6.1,1.9-7.5,4.5l0,0c-10.5,19.6-25.6,33-45.4,40.2c104.7-8.3,187.3-95,189-201.4c-0.4,2.6-1.1,4.9-2.3,7
		c2.2,3.7,0.7,8.2-4.3,13.6c2.4,4.5-2,10-13,16.7c-0.3,3.1-2.1,6-5.5,8.5c5,8.5,4.4,14.2-1.8,17.2c1.1-2.8,0.7-6.1-1.4-8.6
		c-3-3.7-8.4-4.2-12.1-1.2c-3.7,3-4.2,8.4-1.2,12.1C461.4,490.8,462.2,491.4,463.1,491.9L463.1,491.9z"/>
	<path class="st0" d="M360.1,225.9c-0.3,4.6-1.1,9.1-2.3,13.3l76.3,29.3c18.7,16.8,34.3,37,45.9,59.6l-127.1-76.7
		c-1.9,3.6-4.2,7-6.7,10.1l137.8,127.1c-0.8,1.5-1.7,3-2.5,4.4c-7-0.4-18-5.5-26.4-10.6c-2.1-1.3-4-2.5-5.6-3.7
		c-1.6-1.2-3-2.3-4-3.2l0,0l0,0l0,0c-5.8-5.5-11-8.8-15.3-10c-0.8-0.3-1.7-0.4-2.4-0.5c-0.8-0.1-1.5-0.1-2.2-0.1l0,0v0
		c-2.3,0-4.5,0.4-6.6,1c-2.1,0.6-4,1.6-5.8,2.8c-0.7,0.4-1.5,0.8-2.2,1.1l-73.6-99.2c-3.1,2.6-6.4,4.8-9.9,6.8l37.7,78.5
		c-0.8,0.1-1.4,0.3-1.8,0.5c-6.9,1.6-12,5.2-15.2,10.8c-0.6,1.1-1.2,2.2-1.7,3.5c-0.5,1.2-0.9,2.5-1.2,3.9h0l0,0l0,0
		c-0.5,2.3-1.3,4.5-2.2,6.5l-28.5-98.2c-4.2,1.2-8.5,2-13,2.3l2.3,26.4l-3.1-7.3c-0.2-3.6-0.4-8.1-4-8c-3.6-0.1-3.9,4.5-4,8
		l-3.1,7.3l2.3-26.4c-4.5-0.3-8.8-1.1-13-2.3l-28,96.7c-1.4-0.2-2.7,0.1-3.9,0.9c-1.2,0.8-2.2,2.1-3.1,3.9l0,0
		c-0.1,0.3-0.3,0.5-0.4,0.8c-0.4,0.6-0.7,1.1-0.9,1.3c-0.1,0.1-0.2,0.2-0.3,0.2c0-0.4,0-1.2,0.1-2.3c0-0.3,0-0.6,0.1-0.9
		c0-0.3,0-0.6,0.1-1l0-0.1v0c0.1-1.5,0-2.6-0.2-3.5h0c0-0.2-0.1-0.3-0.1-0.5c-0.1-0.2-0.1-0.3-0.2-0.4l0,0l0,0l0,0l0,0
		c-0.7-1-1.3-1.8-2-2.5c-0.1-0.1-0.2-0.3-0.4-0.4l0,0c-0.1-0.1-0.2-0.2-0.3-0.3c-0.6-1.1-1.6-1.8-2.9-2.2c-1.3-0.4-2.9-0.5-4.8-0.2
		l-11.8,1.1l46.1-95.9c-3.5-1.9-6.8-4.2-9.9-6.8l-79.3,106.8l-34,3.3h0c-2.2,0.3-3.7,1-4.6,2.2l0,0c-0.2,0.2-0.3,0.5-0.5,0.8
		c-0.1,0.3-0.2,0.6-0.3,0.9c-0.6,1.4-1.2,2.4-1.9,3c-0.1,0.1-0.2,0.2-0.4,0.3c-0.1,0.1-0.2,0.1-0.3,0.1c-1-0.1-1.7,0.2-2.4,0.9
		c-0.1,0.1-0.2,0.3-0.3,0.4c-0.1,0.2-0.2,0.3-0.3,0.5l0,0l0,0l0,0c-0.9,1.8-1.8,3-2.6,3.7c-0.2,0.1-0.3,0.2-0.5,0.3
		c-0.1,0.1-0.3,0.1-0.4,0.2c-2.9,0-4.7,0.4-5.2,1.3l0,0c-0.2,0.2-0.5,0.5-1,0.7l0,0c-0.1,0.1-0.2,0.1-0.4,0.1
		c-0.1,0-0.2,0.1-0.4,0.1c-1.8,0.1-3.3,0.4-4.4,0.9c-0.5,0.3-1,0.6-1.4,0.9c-2.3-2.9-4.4-6-6.2-9.5L247,261.5
		c-2.5-3.1-4.8-6.5-6.7-10.1l-126.2,76.2c11.6-22.6,27.3-42.7,46.1-59.5l75.2-28.9c-1.2-4.2-2-8.6-2.3-13.1
		c20.1-6.6,41.5-10.1,63.8-10.1C318.9,215.9,340.1,219.4,360.1,225.9L360.1,225.9z"/>
	<path class="st6" d="M296.8,332.8v151h11.9c1.1-3.2,2.4-6.2,4-9.1c1.5-2.9,3.3-5.6,5.2-8.1l-10.5-127.3l0-0.2L296.8,332.8
		L296.8,332.8z M303.5,378.6l1,0l0.2,13.2l-1,0L303.5,378.6L303.5,378.6z"/>
	<path class="st6" d="M287.4,338.1l-1.7,1.3l-10.5,127.2c1.9,2.5,3.7,5.2,5.2,8.1c1.5,2.8,2.8,5.9,4,9.1h11.9v-151L287.4,338.1
		L287.4,338.1z M287.9,416.9l1.6,0l-0.4,16.6l-1.6,0L287.9,416.9L287.9,416.9z M291,350.1l0.9,0l-0.3,11l-0.9,0L291,350.1L291,350.1
		z"/>
	<path class="st7" d="M296.5,299.1L296.5,299.1L296.5,299.1L296.5,299.1L296.5,299.1c-0.5,0-0.9,0.3-1.2,0.7
		c-0.3,0.5-0.5,1.1-0.5,1.8h0v0h0v4.5l1.6-1.2l0,0l0.1-0.1l0.1,0.1l0,0l1.6,1.2v-4.5v0h0c0-0.7-0.2-1.3-0.5-1.8
		C297.4,299.4,297,299.1,296.5,299.1L296.5,299.1z"/>
	<path class="st8" d="M447.4,483.4c-19.9,49.7-63.7,87.3-117.2,98.4c-1-3.4-2.6-6.6-4.5-9.4c49.9-9.6,91.1-43.5,110.7-89H447.4
		L447.4,483.4z M424.2,490.5c-14.1,26.6-36.2,48.2-63.2,61.6c1.6-1.4,2.6-3.4,3.2-6.1c1.4-3.3-0.4-3.7-2.1-5.3
		c21.3-11.8,39-29.3,51.2-50.3H424.2L424.2,490.5z M355.9,554.6c-2.8,1.3-5.7,2.5-8.6,3.5c0.3-0.2,0.7-0.4,1-0.6
		c2.2-1.6,9.2-5.5,6.7-9.6c0,0-1.1-1.6-1.2-1.7c1.5-0.2,3.1-1.1,2.7,1.4C356.2,550.1,357.1,552.5,355.9,554.6L355.9,554.6z
		 M345.7,558.8c-8.4,3-17.2,5.3-26.2,6.7c-4.8-4.1-10.7-6.9-17.3-7.9c2.2-0.1,4.5-0.2,6.7-0.4c1.3,0.3,2.6,0.2,3.9-0.3l0-0.1
		c1.3-0.2,2.6-0.3,3.9-0.5l0.2,0l0-0.1c5.9-0.9,11.7-2.2,17.4-3.8c0.6,1.7,1.9,3.2,3.9,4.2C340.4,558.4,343.1,559.4,345.7,558.8
		L345.7,558.8z M274.4,565.5c-9.2-1.4-18.2-3.8-26.8-6.9c2.6,0.7,5.2,0,7.5-1.7c2.2-1.1,3.6-2.8,4-4.6c5.7,1.7,11.5,2.9,17.5,3.8
		c0.1,0.1,0.3,0.1,0.5,0.1c1.1,0.2,2.3,0.3,3.4,0.5c0.1,0.1,0.1,0.2,0.2,0.3c1.1,0.5,2.3,0.5,3.7,0.2c2.3,0.2,4.7,0.4,7.1,0.5
		C285.2,558.6,279.2,561.4,274.4,565.5L274.4,565.5z M246.6,558.3c-3.1-1.2-6.2-2.4-9.2-3.8c-1.5-2.7,0.1-5.1-1-7.5
		c2.5-0.9,0.3-0.8,3-0.5c-1.8,2.3-2.9,4.5,0.3,6.8c1.6,1.7,3.7,2.9,5.3,4.1C245.6,557.7,246.1,558,246.6,558.3L246.6,558.3z
		 M231.8,551.8c-26.6-13.5-48.5-34.9-62.4-61.3h10.9c12.1,20.9,29.8,38.3,50.9,50.1c-0.5,1.1-2.9,1.1-2.6,4.1
		C228.9,547.8,230,550.1,231.8,551.8L231.8,551.8z M247.7,550.2c-1.1,3.1-3.5,2.6-2.4,6.1c1.7-0.5,3.4-2.7,5-2.8
		c-0.2-1-0.1-2,0.2-2.9C249.5,550.8,248.5,550.6,247.7,550.2L247.7,550.2z M345.9,550.4c-0.9,0.4-2.1,0.1-3.1-0.1
		c0.3,0.9,0.4,2,0.2,2.9c2,0.1,5.4,5.8,5.8,1.4h0C348.8,553.8,346.3,551.7,345.9,550.4L345.9,550.4z M263.7,581.9
		c-53.6-11.1-97.5-48.7-117.4-98.5h11c19.7,45.5,61,79.5,110.9,89C266.3,575.3,264.7,578.5,263.7,581.9L263.7,581.9z"/>
	<path class="st9" d="M297,558.7L297,558.7L297,558.7L297,558.7L297,558.7c-9.2,0-17.5,3.7-23.6,9.8c-6,6-9.8,14.4-9.8,23.6h0v0v0h0
		c0,9.2,3.7,17.5,9.8,23.6c6,6,14.4,9.8,23.6,9.8v0h0h0v0c9.2,0,17.5-3.7,23.6-9.8c6-6,9.8-14.4,9.8-23.6h0v0v0h0
		c0-9.2-3.7-17.5-9.8-23.6C314.5,562.4,306.2,558.7,297,558.7L297,558.7z"/>
	<path class="st5" d="M290,555c0.8-0.6,1.6-1.3,2.4-2v3.8c-1.6,0.2-3.3,0-5-0.1C288.4,556.2,289.2,555.6,290,555L290,555z
		 M326.7,553.6c0.6-3.3-1.6-5.3-3.3-7.7c2,0.3,3.9,1.1,5.8,1.7c-0.6-1.6-1.2-3.1-2.1-4.6c1.6,0.4,3.2,0.7,4.8,1
		c-0.4-2-0.8-4.1-1.5-6c3.9,0.4,8.6,1.8,10.8,5.4c-0.3,0.6-0.5,1.2-0.7,1.8c-4.4-0.6-7.7,2.2-7.2,6.7l0,0.1
		C331.1,552.5,328.9,553.1,326.7,553.6L326.7,553.6z M324.8,554c-2.3,0.5-4.7,0.9-7,1.3c0.1-1.5-0.2-3-0.6-4.4
		C319.6,552.2,322.2,553.2,324.8,554L324.8,554z M303.2,555c0.8,0.6,1.7,1.2,2.6,1.7c-1.6,0.1-3.3,0.3-5,0.1V553
		C301.6,553.7,302.4,554.4,303.2,555L303.2,555z M268.5,554c2.6-0.8,5.2-1.8,7.6-3.1c-0.4,1.4-0.8,2.9-0.6,4.4
		C273.2,554.9,270.8,554.5,268.5,554L268.5,554z M266.6,553.6c-2.2-0.5-4.4-1.1-6.6-1.7l0-0.1c0.4-4.4-2.9-7.2-7.2-6.7
		c-0.2-0.6-0.4-1.2-0.7-1.8c2.2-3.6,6.8-4.9,10.8-5.4c-0.7,2-1.1,4-1.5,6c1.6-0.3,3.2-0.6,4.8-1c-0.9,1.4-1.5,3-2.1,4.6
		c1.9-0.6,3.8-1.4,5.8-1.7C268.1,548.3,266,550.3,266.6,553.6L266.6,553.6z"/>
	<path class="st10" d="M304.1,576.5c6.5,2.8,11.1,9.2,11.1,16.8c0,3.2-0.8,6.3-2.3,8.9c-0.1,0.1-0.1,0.2-0.2,0.3
		c-0.5,0.9-0.5,1.9-0.3,2.9c0.3,1,0.9,1.9,1.9,2.4h0l0,0l0,0c1.4,0.8,3,0.7,4.2-0.2c0.2-0.2,0.5-0.4,0.7-0.6
		c0.2-0.2,0.4-0.5,0.5-0.7l0,0c0.5-0.8,0.6-1.7,0.5-2.6c0-0.2-0.1-0.3-0.1-0.5c-0.1-0.2-0.1-0.4-0.2-0.5v0l0,0
		c-0.5-1.2,0-2.7,1.3-3.2c1.2-0.5,2.7,0,3.2,1.3l0,0c0.2,0.4,0.3,0.8,0.4,1.1c0.1,0.4,0.2,0.7,0.2,1.1c0.3,2-0.1,4-1.1,5.8l0,0l0,0
		l0,0c-0.3,0.6-0.7,1.1-1.2,1.6c-0.4,0.5-0.9,0.9-1.5,1.3c-2.7,1.9-6.4,2.2-9.5,0.4h0l0,0l0,0c-1.8-1-3.1-2.5-3.8-4.3
		c-3.1,2.3-6.9,3.7-11,3.7c-6.7,0-12.5-3.6-15.7-8.9c-0.1-0.1-0.1-0.2-0.2-0.3c-0.5-0.9-1.4-1.4-2.3-1.7c-1-0.3-2.1-0.2-3,0.4l0,0
		l0,0h0c-1.4,0.8-2.1,2.3-2,3.8c0,0.3,0.1,0.6,0.2,0.9c0.1,0.3,0.2,0.5,0.3,0.8l0,0l0,0l0,0c0.4,0.8,1.2,1.4,2,1.7
		c0.2,0.1,0.3,0.1,0.5,0.2c0.2,0,0.3,0.1,0.5,0.1l0,0c1.4,0.2,2.3,1.4,2.2,2.7c-0.1,1.4-1.4,2.3-2.7,2.2l0,0h0
		c-0.4,0-0.8-0.1-1.2-0.2c-0.4-0.1-0.8-0.2-1.1-0.4c-1.8-0.7-3.4-2.1-4.4-3.8l0,0l0,0l0,0c-0.3-0.6-0.6-1.2-0.8-1.9
		c-0.2-0.6-0.3-1.3-0.4-1.9c-0.3-3.3,1.4-6.6,4.4-8.4l0,0l0,0h0c1.8-1,3.7-1.4,5.6-1.1c-0.1-0.7-0.1-1.5-0.1-2.2
		c0-9.9,8-18,17.9-18.2c0.1,0,0.1,0,0.3,0c1.1,0,2.1-0.4,2.8-1.2c0.7-0.7,1.2-1.7,1.2-2.8h0v0v0h0c0-1.1-0.4-2.1-1.2-2.8
		c-0.7-0.7-1.7-1.2-2.8-1.2v0h0c-0.9,0-1.8,0.3-2.5,0.9c-0.1,0.1-0.3,0.2-0.4,0.4c-0.1,0.1-0.2,0.3-0.3,0.4l-0.1,0.1l0,0
		c-0.8,1.1-2.4,1.2-3.5,0.4c-1-0.8-1.2-2.3-0.4-3.4l0,0c0.2-0.3,0.5-0.6,0.8-0.9c0.3-0.3,0.6-0.5,0.9-0.8c1.6-1.2,3.5-1.9,5.5-1.9h0
		v0c2.5,0,4.7,1,6.3,2.6c1.6,1.6,2.6,3.8,2.6,6.3h0v0v0h0C305.9,573.1,305.2,575,304.1,576.5L304.1,576.5z M297,583.8
		c5.2,0,9.4,4.2,9.4,9.4c0,5.2-4.2,9.4-9.4,9.4c-5.2,0-9.4-4.2-9.4-9.4C287.6,588,291.8,583.8,297,583.8L297,583.8z"/>
	<path class="st5" d="M364.3,227.3c21.7,7.6,41.8,18.7,59.5,32.6l-60.9-23.4c0.2-0.8,0.3-1.6,0.5-2.4
		C363.8,231.8,364.1,229.5,364.3,227.3L364.3,227.3z M100.4,360.2c2.8-9,6.2-17,10.1-25.4l128.2-77.4c0.8,1.2,1.6,2.4,2.4,3.6
		L107.2,384.5c-1.4-3.1-2.6-6.5-3.6-10c-0.5-1.9-1-3.8-1.5-5.8c-0.5-2-0.9-4.1-1.2-6.2l0,0L100.4,360.2L100.4,360.2z M182.5,376.8
		l74.3-100.1c1.1,0.8,2.2,1.6,3.4,2.3l-45.5,94.7L182.5,376.8L182.5,376.8z M255.1,379.7l26.6-91.7c1.6,0.3,2.8,0.6,4.4,0.8l-4.1,40
		l-5.3,12.4l3.8,2.5l-7.3,70.9c-3.9-2.5-7.1-6.2-8-10.3c-0.2-0.9-0.3-1.8-0.4-2.8c-0.1-1-0.1-2,0-3.1l0,0v0c0-3.2-0.3-6.1-1-8.5
		c-0.1-0.5-0.3-0.9-0.4-1.4c-0.2-0.5-0.3-0.9-0.5-1.3h0l-0.1-0.1c-1.4-3.4-2.9-5.6-4.7-6.6c-0.4-0.2-0.7-0.4-1.1-0.5
		c-0.4-0.1-0.8-0.2-1.2-0.2h0l-0.1,0v0C255.6,379.7,255.4,379.7,255.1,379.7L255.1,379.7z M320.5,403.7l-7.6-60.3l3.4-2.3l-5.3-12.4
		l-5-39.9c1.8-0.3,3.5-0.6,5.3-1l28.4,98c-1.5,2-3.3,3.8-5.3,5.4c-3.8,2.4-7.2,5.1-10.1,8.1c-0.6,0.6-1.1,1.2-1.6,1.8
		C322.1,401.8,321,403.1,320.5,403.7L320.5,403.7z M369.7,355.5L332.9,279c1.2-0.7,2.3-1.5,3.4-2.3l69.6,93.7
		c-0.3,0-0.5-0.1-0.8-0.2c-0.4-0.1-0.9-0.3-1.3-0.5v0c-0.4-0.2-0.8-0.5-1.2-0.8l0,0l-0.2-0.1l0,0c-4.8-3.5-10.1-9.7-15.2-11.9
		c-0.6-0.2-1.1-0.4-1.7-0.6c-0.6-0.1-1.1-0.2-1.6-0.3l0,0l0,0c-2.1-0.1-4-0.2-5.6-0.3c-1.6-0.1-2.9-0.1-4-0.2
		C372.6,355.6,371,355.5,369.7,355.5L369.7,355.5z M483.4,335.3c3.6,6.5,6.3,13.8,9.2,25l-0.4,2.1l0,0c-0.4,2.1-0.8,4.2-1.2,6.2
		c-0.5,2-1,3.9-1.5,5.8c-1,3.6-2.3,6.9-3.6,10L352,261c0.8-1.2,1.6-2.4,2.4-3.6L483.4,335.3L483.4,335.3z M170.4,259.4
		c17.4-13.6,37.1-24.5,58.3-31.9c0.3,3,0.7,6,1.4,9L170.4,259.4L170.4,259.4z"/>
</g>
</svg>
